<svg width="48" height="48" viewBox="0 0 48 48" fill="none" xmlns="http://www.w3.org/2000/svg">
<path d="M31.2592 4.19658V43.8109C31.2592 45.4316 29.9454 46.7453 28.3248 46.7453H10.0125C8.39184 46.7453 7.07812 45.4315 7.07812 43.8109V4.19658C7.07812 2.57593 8.39194 1.26221 10.0125 1.26221H28.3247C29.9454 1.26221 31.2592 2.57593 31.2592 4.19658V4.19658Z" fill="white"/>
<path d="M31.2592 6.70225V41.305C31.2592 42.5205 30.2739 43.5058 29.0584 43.5058H9.27891C8.06344 43.5058 7.07812 42.5205 7.07812 41.305V6.70225C7.07812 5.48678 8.06344 4.50146 9.27891 4.50146H29.0583C30.2739 4.50146 31.2592 5.48678 31.2592 6.70225V6.70225Z" fill="#F16522"/>
<path d="M31.2555 6.70176V41.3056C31.2555 42.5235 30.2724 43.5064 29.0547 43.5064H24.9319C26.1424 43.5064 27.1327 42.5235 27.1327 41.3056V6.70176C27.1327 5.48395 26.1423 4.50098 24.9319 4.50098H29.0547C30.2725 4.50088 31.2555 5.48395 31.2555 6.70176Z" fill="#FEF0E9"/>
<path d="M37.9101 30.3952C34.592 33.7134 29.579 34.2943 25.6641 32.1378L18.5184 35.2094L21.59 28.0717C19.4335 24.1568 20.0144 19.1357 23.3326 15.8176C27.359 11.7913 33.8839 11.7913 37.9102 15.8176C41.9366 19.844 41.9365 26.3688 37.9101 30.3952Z" fill="white"/>
<path d="M26.6335 17.6383C26.4846 17.7933 26.4011 17.9997 26.4002 18.2147C26.399 18.3208 26.4191 18.426 26.4591 18.5242C26.4992 18.6224 26.5585 18.7116 26.6335 18.7866C26.787 18.9384 26.9941 19.0238 27.21 19.0245C27.3712 19.0214 27.5315 19.0508 27.6811 19.1111C27.8307 19.1714 27.9666 19.2613 28.0806 19.3753C28.1947 19.4894 28.2845 19.6253 28.3448 19.7749C28.4051 19.9245 28.4346 20.0847 28.4315 20.246V21.2616H27.8504C27.6358 21.262 27.4301 21.3476 27.2786 21.4995C27.2029 21.5748 27.1429 21.6642 27.1019 21.7628C27.0609 21.8613 27.0398 21.967 27.0398 22.0737C27.0398 22.1804 27.0609 22.286 27.1019 22.3846C27.1429 22.4831 27.2029 22.5726 27.2786 22.6478C27.4301 22.7998 27.6358 22.8853 27.8504 22.8857H28.4543V27.0031C28.4567 27.6374 28.7094 28.2451 29.1575 28.694C29.6056 29.1429 30.2128 29.3968 30.847 29.4004H31.4784C32.3626 29.3968 33.2094 29.0436 33.8342 28.4179C34.459 27.7923 34.8111 26.9449 34.8135 26.0607C34.8111 25.6428 34.644 25.2428 34.3485 24.9473C34.053 24.6518 33.653 24.4848 33.2351 24.4824H32.3979C32.2916 24.482 32.1862 24.5029 32.088 24.5438C31.9899 24.5846 31.9008 24.6446 31.826 24.7203C31.7504 24.7955 31.6903 24.885 31.6494 24.9835C31.6084 25.082 31.5873 25.1877 31.5873 25.2944C31.5873 25.4011 31.6084 25.5068 31.6494 25.6053C31.6903 25.7038 31.7504 25.7933 31.826 25.8686C31.9008 25.9442 31.9899 26.0042 32.088 26.045C32.1862 26.0859 32.2916 26.1068 32.3979 26.1065H33.1665C33.1581 26.5538 32.9738 26.9799 32.6536 27.2924C32.3334 27.6049 31.9029 27.7788 31.4555 27.7763H30.8241C30.7221 27.7782 30.6207 27.7594 30.5261 27.7212C30.4314 27.683 30.3455 27.6262 30.2733 27.554C30.2011 27.4818 30.1442 27.3958 30.106 27.3012C30.0678 27.2066 30.0491 27.1052 30.051 27.0031V22.8857H32.5763C32.6827 22.886 32.788 22.8652 32.8862 22.8243C32.9844 22.7835 33.0735 22.7235 33.1482 22.6478C33.2239 22.5726 33.2839 22.4831 33.3249 22.3846C33.3658 22.286 33.3869 22.1804 33.3869 22.0737C33.3869 21.967 33.3658 21.8613 33.3249 21.7628C33.2839 21.6642 33.2239 21.5748 33.1482 21.4995C33.0735 21.4239 32.9844 21.3639 32.8862 21.323C32.788 21.2822 32.6827 21.2613 32.5763 21.2616H30.051V20.246C30.0486 19.4928 29.7486 18.7711 29.2165 18.2381C28.6843 17.7051 27.9631 17.404 27.21 17.4004C26.9941 17.4011 26.787 17.4865 26.6335 17.6383V17.6383Z" fill="#424242"/>
<path opacity="0.3" d="M37.9093 30.3966C35.4077 32.8982 31.9451 33.8372 28.7173 33.2356C30.6906 32.8688 32.576 31.9225 34.1019 30.3966C38.1294 26.3691 38.1294 19.8401 34.1019 15.82C32.5686 14.2867 30.6906 13.3404 28.7173 12.9736C31.9451 12.372 35.4078 13.3184 37.9093 15.82C41.9367 19.8401 41.9367 26.3691 37.9093 30.3966Z" fill="white"/>
<path d="M31.9888 4.19287C31.9888 2.1705 30.3432 0.524902 28.3209 0.524902H10.0103C7.98788 0.524902 6.34229 2.1705 6.34229 4.19287V43.8072C6.34229 45.8296 7.98788 47.4752 10.0103 47.4752H28.3209C30.3432 47.4752 31.9888 45.8296 31.9888 43.8072C31.9888 41.4759 31.9888 36.3886 31.9888 34.0414C34.3707 33.7434 36.6562 32.6865 38.4286 30.9141C42.7342 26.6092 42.7342 19.6034 38.4286 15.2986C36.6239 13.4939 34.3442 12.4562 31.9888 12.1643C31.9888 7.71047 31.9888 8.66503 31.9888 4.19287V4.19287ZM22.8138 15.2986C19.446 18.6664 18.6322 23.8825 20.7777 28.1036L17.844 34.9188C17.5821 35.5298 18.204 36.1431 18.8076 35.8831L25.6314 32.9501C27.1748 33.7345 28.8512 34.1189 30.5215 34.1313V41.3056C30.5215 42.1144 29.8631 42.7728 29.0544 42.7728H9.27666C8.46788 42.7728 7.80947 42.1144 7.80947 41.3056V6.70172C7.80947 5.89293 8.46788 5.23453 9.27666 5.23453H29.0544C29.8632 5.23453 30.5216 5.89293 30.5216 6.70172V12.0742C27.7276 12.0992 24.9414 13.1711 22.8138 15.2986V15.2986ZM10.0103 1.99209H28.3209C29.5281 1.99209 30.5095 2.96953 30.5198 4.17431C30.0869 3.92231 29.5906 3.76734 29.0544 3.76734H9.27666C8.7405 3.76734 8.24419 3.92231 7.81135 4.17431C7.82147 2.96953 8.80294 1.99209 10.0103 1.99209V1.99209ZM28.3209 46.0081H10.0103C8.80566 46.0081 7.82654 45.0347 7.8121 43.8334C8.24485 44.0851 8.74079 44.24 9.27666 44.24H29.0544C29.5902 44.24 30.0863 44.0851 30.519 43.8334C30.5046 45.0347 29.5254 46.0081 28.3209 46.0081ZM37.3913 29.8768C34.3989 32.87 29.7229 33.5355 26.0184 31.4952C25.8206 31.387 25.5828 31.3756 25.375 31.4637L19.9196 33.8085L22.2644 28.3616C22.3539 28.1531 22.3418 27.916 22.2329 27.7176C20.1911 24.0109 20.8567 19.3306 23.8513 16.336C27.5844 12.6029 33.6588 12.6034 37.3914 16.336C41.1245 20.0692 41.1245 26.1436 37.3913 29.8768V29.8768Z" fill="#424242"/>
<path d="M21.5573 6.70264H16.7796C16.3741 6.70264 16.046 7.03076 16.046 7.43623C16.046 7.8417 16.3741 8.16982 16.7796 8.16982H21.5573C21.9628 8.16982 22.2909 7.8417 22.2909 7.43623C22.2909 7.03076 21.9628 6.70264 21.5573 6.70264V6.70264Z" fill="#424242"/>
</svg>
