<svg width="33" height="48" viewBox="0 0 33 48" fill="none" xmlns="http://www.w3.org/2000/svg">
<path d="M32.3737 11.1654V44.3335C32.3737 45.8743 31.1247 47.1233 29.5839 47.1233H4.68944C3.14866 47.1233 1.89963 45.8743 1.89963 44.3335V4.42995C1.89963 2.88917 3.14866 1.64014 4.68944 1.64014H22.8467C23.5875 1.64014 24.3009 1.9377 24.8241 2.46214C27.3347 4.97792 29.0426 6.67995 31.553 9.18917C32.0765 9.71248 32.3737 10.4253 32.3737 11.1654V11.1654Z" fill="white"/>
<path d="M14.7623 15.2319H12.1373C11.1241 15.2319 10.2998 14.4077 10.2998 13.3944V10.7694C10.2998 10.3347 10.6526 9.98193 11.0873 9.98193C11.522 9.98193 11.8748 10.3347 11.8748 10.7694V13.3944C11.8748 13.5393 11.9924 13.6569 12.1373 13.6569H14.7623C15.197 13.6569 15.5498 14.0097 15.5498 14.4444C15.5498 14.8791 15.197 15.2319 14.7623 15.2319Z" fill="#424242"/>
<path d="M21.6623 18.3819H19.0373C18.024 18.3819 17.1998 17.5577 17.1998 16.5444V11.8194C17.1998 10.8062 18.024 9.98193 19.0373 9.98193H21.6623C22.097 9.98193 22.4498 10.3347 22.4498 10.7694C22.4498 11.2041 22.097 11.5569 21.6623 11.5569H19.0373C18.8924 11.5569 18.7748 11.6745 18.7748 11.8194V16.5444C18.7748 16.6893 18.8924 16.8069 19.0373 16.8069H20.8748V15.2319H20.0873C19.6526 15.2319 19.2998 14.8791 19.2998 14.4444C19.2998 14.0097 19.6526 13.6569 20.0873 13.6569H21.6623C22.097 13.6569 22.4498 14.0097 22.4498 14.4444V17.5944C22.4498 18.0291 22.097 18.3819 21.6623 18.3819Z" fill="#424242"/>
<path d="M14.7623 9.98193C14.3276 9.98193 13.9748 10.3347 13.9748 10.7694V17.5944C13.9748 18.0291 14.3276 18.3819 14.7623 18.3819C15.197 18.3819 15.5498 18.0291 15.5498 17.5944V10.7694C15.5498 10.3347 15.197 9.98193 14.7623 9.98193Z" fill="#424242"/>
<path d="M32.1696 11.1368V44.3029C32.1696 45.8434 30.9225 47.0906 29.382 47.0906H24.0707C25.6112 47.0906 26.8584 45.8435 26.8584 44.3029V11.1368C26.8584 10.3959 26.565 9.68436 26.0441 9.15617C23.5278 6.64723 21.8259 4.9453 19.3096 2.42905C18.7888 1.90827 18.0772 1.60742 17.3363 1.60742H22.6402C23.3811 1.60742 24.0927 1.90827 24.621 2.42905C27.1299 4.9453 28.8391 6.64723 31.3481 9.15617C31.8689 9.68427 32.1696 10.3959 32.1696 11.1368V11.1368Z" fill="#FEF0E9"/>
<path d="M7.53156 24.3818H26.2684V41.2547H7.53156V24.3818Z" fill="#F16522"/>
<path opacity="0.3" d="M23.3372 24.3784H26.2715V41.2585H23.3372V24.3784Z" fill="#913D14"/>
<path d="M4.45282 47.8571H29.3472C31.2901 47.8571 32.8705 46.2768 32.8705 44.3338V11.1657C32.8705 10.2387 32.4936 9.32952 31.8353 8.67046C28.9376 5.77611 27.3648 4.20646 25.1069 1.94408C24.4492 1.28502 23.5394 0.906738 22.6102 0.906738H4.45282C2.50994 0.906738 0.929504 2.48718 0.929504 4.43005V44.3338C0.929504 46.2767 2.50994 47.8571 4.45282 47.8571V47.8571ZM2.39669 4.43005C2.39669 3.29596 3.31872 2.37393 4.45282 2.37393H22.6101C23.1525 2.37393 23.684 2.59461 24.068 2.98002C25.8497 4.76586 27.3562 6.27074 30.7972 9.7078C31.1826 10.0932 31.4033 10.6248 31.4033 11.1657V44.3338C31.4033 45.4679 30.4813 46.3899 29.3472 46.3899H4.45282C3.31872 46.3899 2.39669 45.4679 2.39669 44.3338V4.43005Z" fill="#424242"/>
<path d="M7.5312 41.9884H26.2681C26.6735 41.9884 27.0017 41.6603 27.0017 41.2548V24.382C27.0017 23.9766 26.6735 23.6484 26.2681 23.6484H7.5312C7.12573 23.6484 6.79761 23.9766 6.79761 24.382V41.2548C6.79761 41.6603 7.12573 41.9884 7.5312 41.9884V41.9884ZM8.2648 31.6701H12.8405C13.2459 31.6701 13.574 31.3419 13.574 30.9365V25.1157H19.445V32.0849H15.4052C14.9997 32.0849 14.6716 32.413 14.6716 32.8185V36.8999H10.6325C10.227 36.8999 9.89886 37.228 9.89886 37.6335V40.5214H8.2647V31.6701H8.2648ZM19.445 36.8998H16.1389V33.5521H19.445V36.8998ZM19.445 38.367V40.5212H11.3661V38.367H19.445ZM20.9122 40.5212V38.7109H23.3337C23.7392 38.7109 24.0673 38.3827 24.0673 37.9773C24.0673 37.5718 23.7392 37.2437 23.3337 37.2437H20.9122V33.5521H25.5345V40.5213H20.9122V40.5212ZM25.5345 26.926H23.113C22.7075 26.926 22.3794 27.2542 22.3794 27.6596C22.3794 28.0651 22.7075 28.3932 23.113 28.3932H25.5345V32.0849H20.9122V25.1157H25.5345V26.926ZM12.1069 25.1156V30.2028H8.2648V25.1156H12.1069Z" fill="#424242"/>
</svg>
