<svg width="48" height="48" viewBox="0 0 48 48" fill="none" xmlns="http://www.w3.org/2000/svg">
<path d="M37.1709 3.08691V44.9133C37.1709 46.1508 36.1677 47.154 34.9302 47.154H13.0702C11.8327 47.154 10.8295 46.1508 10.8295 44.9133V3.08691C10.8295 1.84941 11.8327 0.846191 13.0702 0.846191H34.9303C36.1678 0.846191 37.1709 1.84941 37.1709 3.08691V3.08691Z" fill="#F16522"/>
<path d="M37.1721 3.08593V44.9123C37.1721 46.1521 36.1712 47.153 34.9314 47.153H30.7263C31.9662 47.153 32.967 46.1521 32.967 44.9123V3.08593C32.967 1.84609 31.9662 0.845215 30.7263 0.845215H34.9314C36.1712 0.845215 37.1721 1.846 37.1721 3.08593V3.08593Z" fill="#FEF0E9"/>
<path d="M18.9908 35.71C18.9908 36.6487 18.2293 37.4103 17.2906 37.4103C16.352 37.4103 15.5903 36.6487 15.5903 35.71C15.5903 34.7714 16.352 34.0098 17.2906 34.0098C18.2293 34.0098 18.9908 34.7714 18.9908 35.71Z" fill="white"/>
<path d="M25.7005 35.71C25.7005 36.6487 24.939 37.4103 24.0003 37.4103C23.0617 37.4103 22.3 36.6487 22.3 35.71C22.3 34.7714 23.0617 34.0098 24.0003 34.0098C24.939 34.0098 25.7005 34.7714 25.7005 35.71Z" fill="white"/>
<path d="M32.4101 35.71C32.4101 36.6487 31.6486 37.4103 30.7099 37.4103C29.7713 37.4103 29.0096 36.6487 29.0096 35.71C29.0096 34.7714 29.7713 34.0098 30.7099 34.0098C31.6486 34.0098 32.4101 34.7714 32.4101 35.71Z" fill="white"/>
<path d="M31.301 17.896C31.301 21.9292 28.0296 25.1932 23.9963 25.1932C19.9705 25.1932 16.6991 21.9292 16.6991 17.896C16.6991 13.8627 19.9705 10.5913 23.9963 10.5913C28.0296 10.5913 31.301 13.8627 31.301 17.896V17.896Z" fill="white"/>
<path opacity="0.3" d="M31.3015 17.8974C31.3015 21.9307 28.0301 25.1946 23.9969 25.1946C23.474 25.1946 22.9587 25.1423 22.4583 25.0303C25.7521 24.3283 28.2243 21.4004 28.2243 17.8974C28.2243 14.3944 25.7521 11.4591 22.4583 10.757C22.9587 10.6525 23.474 10.5928 23.9969 10.5928C28.0301 10.5927 31.3015 13.8641 31.3015 17.8974V17.8974Z" fill="white"/>
<path d="M22.2573 16.2158C22.2573 17.1763 23.0381 17.957 23.9985 17.957C24.9621 17.957 25.7429 17.1763 25.7429 16.2158C25.7429 15.2523 24.9621 14.4746 23.9985 14.4746C23.0381 14.4745 22.2573 15.2523 22.2573 16.2158Z" fill="white"/>
<path d="M27.2396 20.2605C26.7665 18.9204 25.5008 17.957 23.9971 17.957C22.4981 17.957 21.2335 18.9204 20.7606 20.2605C22.9202 21.6595 25.08 21.6595 27.2396 20.2605Z" fill="white"/>
<path d="M13.07 0.286133C11.5259 0.286133 10.2692 1.54285 10.2692 3.08701V44.9134C10.2692 46.4575 11.5259 47.7143 13.07 47.7143H34.93C36.4742 47.7143 37.7309 46.4575 37.7309 44.9134V3.08701C37.7309 1.54285 36.4742 0.286133 34.93 0.286133H13.07ZM36.6105 3.08701V44.9134C36.6105 45.8397 35.8563 46.5939 34.9299 46.5939H13.07C12.1437 46.5939 11.3895 45.8397 11.3895 44.9134V3.08701C11.3895 2.16066 12.1437 1.40645 13.07 1.40645H34.93C35.8563 1.40645 36.6105 2.16066 36.6105 3.08701V3.08701Z" fill="#424242"/>
<path d="M26.5194 43.6064H21.4814C21.1721 43.6064 20.9213 43.8573 20.9213 44.1666C20.9213 44.4759 21.1721 44.7268 21.4814 44.7268H26.5194C26.8286 44.7268 27.0795 44.4759 27.0795 44.1666C27.0795 43.8573 26.8286 43.6064 26.5194 43.6064Z" fill="#424242"/>
<path d="M23.0875 4.39424H29.3866C29.6958 4.39424 29.9467 4.14336 29.9467 3.83408C29.9467 3.5248 29.6958 3.27393 29.3866 3.27393H23.0875C22.7782 3.27393 22.5273 3.5248 22.5273 3.83408C22.5273 4.14336 22.7782 4.39424 23.0875 4.39424Z" fill="#424242"/>
<path d="M18.6141 4.39424H19.7585C20.0678 4.39424 20.3187 4.14336 20.3187 3.83408C20.3187 3.5248 20.0678 3.27393 19.7585 3.27393H18.6141C18.3048 3.27393 18.054 3.5248 18.054 3.83408C18.054 4.14336 18.3048 4.39424 18.6141 4.39424Z" fill="#424242"/>
<path d="M17.2903 33.4497C16.0438 33.4497 15.0299 34.4635 15.0299 35.7101C15.0299 36.9567 16.0437 37.9705 17.2903 37.9705C18.5369 37.9705 19.5507 36.9567 19.5507 35.7101C19.5507 34.4635 18.5368 33.4497 17.2903 33.4497ZM17.2903 36.8501C16.6615 36.8501 16.1503 36.3388 16.1503 35.7101C16.1503 35.0814 16.6616 34.5701 17.2903 34.5701C17.919 34.5701 18.4303 35.0814 18.4303 35.7101C18.4303 36.3388 17.919 36.8501 17.2903 36.8501Z" fill="#424242"/>
<path d="M21.7396 35.71C21.7396 36.9565 22.7534 37.9704 24 37.9704C25.2465 37.9704 26.2604 36.9566 26.2604 35.71C26.2604 34.4634 25.2465 33.4497 24 33.4497C22.7535 33.4497 21.7396 34.4635 21.7396 35.71ZM25.14 35.71C25.14 36.3388 24.6287 36.85 24 36.85C23.3713 36.85 22.86 36.3387 22.86 35.71C22.86 35.0813 23.3713 34.57 24 34.57C24.6287 34.57 25.14 35.0813 25.14 35.71Z" fill="#424242"/>
<path d="M30.7096 33.4497C29.4631 33.4497 28.4492 34.4635 28.4492 35.7101C28.4492 36.9567 29.463 37.9705 30.7096 37.9705C31.9561 37.9705 32.97 36.9567 32.97 35.7101C32.97 34.4635 31.9562 33.4497 30.7096 33.4497ZM30.7096 36.8501C30.0808 36.8501 29.5696 36.3388 29.5696 35.7101C29.5696 35.0814 30.0809 34.5701 30.7096 34.5701C31.3384 34.5701 31.8496 35.0814 31.8496 35.7101C31.8496 36.3388 31.3384 36.8501 30.7096 36.8501Z" fill="#424242"/>
<path d="M23.9963 25.7538C28.3333 25.7538 31.8613 22.2286 31.8613 17.8961C31.8613 13.5598 28.3333 10.0317 23.9963 10.0317C19.6637 10.0317 16.1393 13.5598 16.1393 17.8961C16.1393 22.2286 19.6637 25.7538 23.9963 25.7538ZM23.9963 11.1521C27.7154 11.1521 30.741 14.1776 30.741 17.8961C30.741 21.6109 27.7155 24.6335 23.9963 24.6335C20.2814 24.6335 17.2596 21.6109 17.2596 17.8961C17.2596 14.1776 20.2814 11.1521 23.9963 11.1521V11.1521Z" fill="#424242"/>
<path d="M20.4559 20.7308C21.6324 21.4924 22.8162 21.8731 24.0008 21.8731C25.1846 21.8731 26.3684 21.4924 27.5449 20.7308C27.7622 20.5894 27.8542 20.318 27.7681 20.0736C27.4018 19.0361 26.6334 18.2255 25.68 17.7789C26.0637 17.3677 26.3035 16.8209 26.3035 16.2158C26.3035 14.9466 25.2692 13.9146 23.9986 13.9146C22.7294 13.9146 21.6973 14.9466 21.6973 16.2158C21.6973 16.8205 21.9364 17.3671 22.319 17.7782C21.3666 18.2246 20.5988 19.0357 20.2327 20.0744C20.1466 20.3181 20.2385 20.5901 20.4559 20.7308V20.7308ZM23.9985 15.035C24.6513 15.035 25.1831 15.5645 25.1831 16.2158C25.1831 16.8672 24.6513 17.3967 23.9985 17.3967C23.3472 17.3967 22.8177 16.8672 22.8177 16.2158C22.8177 15.5645 23.3472 15.035 23.9985 15.035ZM23.9971 18.5171C25.062 18.5171 26.0314 19.1123 26.5296 20.0357C24.8301 20.9868 23.1678 20.9861 21.4712 20.0357C21.9679 19.1123 22.9351 18.5171 23.9971 18.5171V18.5171Z" fill="#424242"/>
<path d="M30.935 29.4249C30.935 29.1156 30.6842 28.8647 30.3749 28.8647H17.6258C17.3165 28.8647 17.0657 29.1156 17.0657 29.4249C17.0657 29.7342 17.3165 29.9851 17.6258 29.9851H30.3749C30.6842 29.9852 30.935 29.7342 30.935 29.4249Z" fill="#424242"/>
</svg>
