<svg width="48" height="48" viewBox="0 0 48 48" fill="none" xmlns="http://www.w3.org/2000/svg">
<path d="M30.7192 22.0751C30.7192 25.9352 27.4716 26.7992 25.7226 29.0414C25.339 29.5183 25.1628 30.0988 25.1628 30.8141C25.1628 31.6896 24.3657 32.3587 23.4626 32.3587C22.4677 32.3587 21.7729 31.6346 21.7729 30.8141C21.7729 29.0593 22.4202 27.627 23.4626 26.512C25.2286 24.6618 27.2672 23.8255 27.2672 22.2202C27.2672 20.9969 26.8629 19.3693 23.4005 19.3693C22.2073 19.3693 20.825 19.6478 19.8033 20.292C19.1502 20.7274 18.3105 20.6756 17.7506 20.1158C17.0662 19.4313 17.057 18.2442 18.2067 17.5449C19.7476 16.5747 21.3726 16.0625 23.6388 16.0625C27.6359 16.0624 30.7192 18.1749 30.7192 22.0751V22.0751Z" fill="#F16522"/>
<path d="M24.586 35.0939C25.2516 35.7595 25.2141 36.788 24.586 37.4162C23.9478 38.0545 22.9175 38.0944 22.2559 37.4162C21.6351 36.8105 21.5803 35.753 22.2559 35.0939C22.9057 34.436 23.952 34.4598 24.586 35.0939Z" fill="#E0E0E0"/>
<path d="M43.518 31.5581H39.9963V20.0622C39.9963 11.2546 32.8303 4.08861 24.0227 4.08861C15.2151 4.08861 8.04967 11.2546 8.04967 20.0622V31.5581H4.52795V20.0622C4.52795 9.31264 13.2731 0.566895 24.0227 0.566895C34.7723 0.566895 43.518 9.31264 43.518 20.0622V31.5581Z" fill="white"/>
<path d="M43.5208 20.0622V31.5591H39.9983V20.0622C39.9983 14.6576 37.2998 9.86525 33.1727 6.98534C30.1642 3.66697 26.0296 1.38425 21.3733 0.749277C22.2425 0.62834 23.1269 0.567871 24.0264 0.567871C34.7752 0.567871 43.5208 9.31343 43.5208 20.0622Z" fill="white"/>
<path d="M11.5591 24.7368V38.3881C11.5591 39.3716 10.7619 40.1689 9.77834 40.1689C8.7949 40.1689 7.99756 39.3717 7.99756 38.3881V24.7368C7.99756 23.7534 8.79481 22.9561 9.77834 22.9561C10.7618 22.9561 11.5591 23.7533 11.5591 24.7368V24.7368Z" fill="white"/>
<path d="M36.4408 24.7368V38.3881C36.4408 39.3716 37.238 40.1689 38.2216 40.1689C39.205 40.1689 40.0024 39.3717 40.0024 38.3881V24.7368C40.0024 23.7534 39.2051 22.9561 38.2216 22.9561C37.238 22.9561 36.4408 23.7533 36.4408 24.7368V24.7368Z" fill="white"/>
<path d="M2.13013 28.4609V34.6553C2.13013 35.6513 2.75853 36.5389 3.698 36.8697L7.99831 38.3843V24.7319L3.698 26.2465C2.75853 26.5774 2.13013 27.4649 2.13013 28.4609V28.4609Z" fill="#F16522"/>
<path opacity="0.3" d="M8.00184 24.7334V38.3847L5.45447 37.4928V25.6253L8.00184 24.7334Z" fill="white"/>
<path d="M45.8697 28.4609V34.6553C45.8697 35.6513 45.2412 36.5389 44.3018 36.8697L40.0015 38.3843V24.7319L44.3018 26.2465C45.2412 26.5774 45.8697 27.4649 45.8697 28.4609V28.4609Z" fill="#F16522"/>
<path opacity="0.3" d="M45.8715 28.4599V34.6581C45.8715 35.6483 45.2442 36.5403 44.2993 36.8729L39.9983 38.3847V37.5607L41.9561 36.8729C42.8934 36.5403 43.5208 35.6483 43.5208 34.6581V28.4599C43.5208 27.4621 42.8934 26.5777 41.9561 26.2451L39.9983 25.5573V24.7334L44.2993 26.2452C45.2442 26.5777 45.8715 27.4622 45.8715 28.4599V28.4599Z" fill="white"/>
<path d="M28.2235 45.2234C28.2235 46.442 26.3373 47.432 24.0045 47.432C21.6717 47.432 19.7764 46.442 19.7764 45.2234C19.7764 43.994 21.6718 43.0039 24.0045 43.0039C26.3372 43.0039 28.2235 43.994 28.2235 45.2234Z" fill="white"/>
<path d="M3.50989 37.4039L7.4727 38.7997C7.66854 39.8981 8.62535 40.736 9.77839 40.736C11.0724 40.736 12.1258 39.6826 12.1258 38.3879V24.7369C12.1258 23.4429 11.0724 22.3895 9.77839 22.3895C9.35285 22.3895 8.95882 22.5121 8.61429 22.711V20.0621C8.61429 11.5679 15.528 4.65726 24.0265 4.65726C32.5206 4.65726 39.4313 11.568 39.4313 20.0621V22.7358C39.0769 22.5206 38.6655 22.3895 38.2215 22.3895C36.9275 22.3895 35.8741 23.4429 35.8741 24.7369V38.3879C35.8741 39.6826 36.9275 40.736 38.2215 40.736C39.3745 40.736 40.3313 39.898 40.5272 38.7997L42.3714 38.1502V40.3352C42.3714 42.7151 40.4323 44.6513 38.0479 44.6513H28.6978C28.2689 43.3559 26.3938 42.4368 24.0043 42.4368C21.3152 42.4368 19.2092 43.6607 19.2092 45.2234C19.2092 46.7795 21.3152 47.9989 24.0043 47.9989C26.3554 47.9989 28.2597 47.0631 28.6961 45.7851H38.0479C41.0575 45.7851 43.5052 43.3403 43.5052 40.3352V37.7508L44.49 37.4039C45.6541 36.9943 46.4365 35.89 46.4365 34.655V28.461C46.4365 27.2261 45.6541 26.1218 44.49 25.7121L44.0877 25.5704V20.0622C44.0877 9.00069 35.088 0.000976562 24.0265 0.000976562C12.9606 0.000976562 3.95792 9.00069 3.95792 20.0622V25.5543L3.50989 25.7122C2.34579 26.1219 1.56335 27.2262 1.56335 28.4611V34.6551C1.56335 35.89 2.34579 36.9943 3.50989 37.4039V37.4039ZM24.0044 46.8651C21.9087 46.8651 20.3431 45.9985 20.3431 45.2234C20.3431 44.4432 21.9087 43.5707 24.0044 43.5707C26.15 43.5707 27.6456 44.4362 27.6551 45.2159C27.6551 45.2168 27.6546 45.2174 27.6546 45.2183C27.6546 45.2211 27.6561 45.2234 27.6562 45.2261C27.6528 46.0004 26.0926 46.8651 24.0044 46.8651V46.8651ZM9.77839 23.5234C10.4479 23.5234 10.992 24.0674 10.992 24.737V38.3879C10.992 39.0575 10.4479 39.6022 9.77839 39.6022C9.10882 39.6022 8.56479 39.0574 8.56479 38.3879V38.3873C8.56479 38.3863 8.56554 38.3853 8.56554 38.3843V31.7859C8.5961 31.7162 8.61429 31.64 8.61429 31.5591V24.4128C8.75707 23.9015 9.22189 23.5234 9.77839 23.5234V23.5234ZM39.4351 38.3879C39.4351 39.0575 38.891 39.6022 38.2215 39.6022C37.5519 39.6022 37.0079 39.0574 37.0079 38.3879V24.737C37.0079 24.0674 37.5519 23.5234 38.2215 23.5234C38.8785 23.5234 39.4115 24.0481 39.4313 24.7004V31.5591C39.4313 31.5643 39.4341 31.5686 39.4343 31.5737V38.3842C39.4343 38.3852 39.4351 38.3862 39.4351 38.3872V38.3879ZM43.308 26.4974L44.1137 26.781C44.8252 27.032 45.3029 27.7067 45.3029 28.4611V34.6551C45.3029 35.4095 44.8253 36.0842 44.1137 36.3352L40.569 37.5832V25.533L43.2967 26.4934C43.3003 26.495 43.3042 26.4959 43.308 26.4974V26.4974ZM5.09182 20.0622C5.09182 9.62591 13.5859 1.13479 24.0266 1.13479C34.4629 1.13479 42.954 9.62591 42.954 20.0622V25.1711L40.5652 24.3297V20.0622C40.5652 10.9428 33.1459 3.52345 24.0265 3.52345C14.9028 3.52345 7.48048 10.9428 7.48048 20.0622V24.2593C7.47664 24.2777 7.47701 24.2974 7.47364 24.316L5.09182 25.1549V20.0622V20.0622ZM2.69717 28.461C2.69717 27.7066 3.17473 27.0319 3.88639 26.7809L4.73379 26.4826C4.73951 26.4804 4.74542 26.479 4.75104 26.4765L7.43107 25.5329V37.583L3.88639 36.335C3.17482 36.084 2.69717 35.4093 2.69717 34.6549V28.461Z" fill="#424242"/>
<path d="M26.1702 29.3899C26.6818 28.7337 27.3387 28.1993 28.0333 27.6338C29.5584 26.3937 31.2864 24.9874 31.2864 22.0754C31.2864 18.0789 28.2843 15.4961 23.639 15.4961C21.3971 15.4961 19.6285 15.9803 17.9123 17.061C17.2309 17.4751 16.8109 18.0804 16.7282 18.7668C16.6514 19.4069 16.878 20.0453 17.3498 20.5171C18.0887 21.256 19.2262 21.3564 20.1061 20.7724C20.935 20.249 22.1671 19.9368 23.4006 19.9368C26.7002 19.9368 26.7002 21.4796 26.7002 22.2208C26.7002 22.9767 26.0491 23.5421 24.8991 24.4758C24.3248 24.9416 23.6737 25.4702 23.0484 26.1249C21.826 27.4329 21.206 29.0104 21.206 30.8145C21.206 31.9985 22.1974 32.9256 23.4625 32.9256C24.7122 32.9256 25.7294 31.9786 25.7294 30.8145C25.7295 30.2159 25.8676 29.7656 26.1702 29.3899ZM24.5957 30.8146C24.5957 31.3445 24.0768 31.7919 23.4626 31.7919C22.7599 31.7919 22.3399 31.2951 22.3399 30.8146C22.3399 29.3073 22.8566 27.9903 23.8731 26.9038C24.4444 26.3051 25.0652 25.801 25.6136 25.3559C26.805 24.3888 27.834 23.5532 27.834 22.2209C27.834 19.9532 26.3422 18.8031 23.4006 18.8031C21.9398 18.8031 20.5188 19.1715 19.489 19.8211C19.0483 20.1156 18.5094 20.0735 18.1515 19.7155C17.9271 19.4911 17.8186 19.1943 17.854 18.902C17.8946 18.564 18.1183 18.2628 18.5088 18.0251C20.0619 17.047 21.5965 16.63 23.6391 16.63C27.5957 16.63 30.1526 18.7678 30.1526 22.0755C30.1526 24.4487 28.8387 25.5168 27.3181 26.7547C26.6043 27.3349 25.8669 27.935 25.2815 28.6858C24.8201 29.2593 24.5957 29.9553 24.5957 30.8146V30.8146Z" fill="#424242"/>
<path d="M23.4153 34.0425C23.4131 34.0425 23.4109 34.0425 23.4094 34.0425C22.8196 34.044 22.2674 34.2757 21.86 34.6877C21.4363 35.101 21.203 35.6554 21.203 36.2481C21.203 36.8402 21.4422 37.4137 21.8496 37.8116C22.2652 38.2368 22.8144 38.473 23.3975 38.4767H23.4108C24.0013 38.4767 24.5608 38.2427 24.9868 37.8168C25.4002 37.4042 25.6313 36.8564 25.6379 36.2755C25.6446 35.6813 25.4135 35.1196 24.9868 34.6929C24.5676 34.2728 24.0095 34.0425 23.4153 34.0425V34.0425ZM24.1852 37.0151C23.9733 37.227 23.6987 37.3429 23.4108 37.3429C23.2329 37.3503 22.9228 37.2875 22.6513 37.01C22.4512 36.815 22.3368 36.5368 22.3368 36.2481C22.3368 35.9632 22.4483 35.6975 22.6587 35.4922C22.8595 35.2893 23.1274 35.177 23.4123 35.1763H23.4152C23.706 35.1763 23.9799 35.2893 24.1851 35.4945C24.394 35.7034 24.5077 35.9765 24.5039 36.2629C24.5011 36.5456 24.3883 36.8128 24.1852 37.0151V37.0151Z" fill="#424242"/>
</svg>
