<svg width="36" height="33" viewBox="0 0 36 33" fill="none" xmlns="http://www.w3.org/2000/svg">
<path d="M34.1687 14.402C32.8472 13.0805 30.697 13.0805 29.3757 14.402L23.5275 20.2502C23.3053 19.7 22.9429 19.2214 22.4846 18.8582C25.4969 17.142 27.5327 13.9009 27.5327 10.193C27.5327 4.69806 23.0622 0.227539 17.5672 0.227539C12.0723 0.227539 7.60174 4.69806 7.60174 10.193C7.60174 12.4839 8.37924 14.5963 9.68359 16.2814C9.41165 16.29 9.13882 16.3126 8.86564 16.3517C7.28544 16.5774 5.85364 17.2933 4.72495 18.4221L0 23.147L1.4579 24.6049L6.18292 19.8799C7.82479 18.2382 10.3933 17.8712 12.429 18.9877C13.8606 19.7727 15.4803 20.1876 17.113 20.1876H20.3841C21.116 20.1876 21.7115 20.7831 21.7115 21.515C21.7115 22.2469 21.116 22.8424 20.3841 22.8424H14.8815V24.9042H20.3841C21.2861 24.9042 22.1062 24.5494 22.7142 23.9727L22.7174 23.976L30.8337 15.8597C31.3512 15.3422 32.1933 15.3422 32.7108 15.8597C33.2283 16.3773 33.2283 17.2194 32.709 17.7389L24.4004 26.0919C23.2741 27.2242 21.7122 27.8736 20.1152 27.8736H14.6195C11.9784 27.8736 9.49529 28.902 7.62777 30.7696L9.08567 32.2275C10.5638 30.7495 12.5291 29.9354 14.6196 29.9354H20.1153C22.257 29.9354 24.3518 29.0645 25.8622 27.5459L34.1688 19.195C35.4902 17.8736 35.4902 15.7234 34.1687 14.402ZM17.5672 18.0967C13.2091 18.0967 9.66347 14.5511 9.66347 10.193C9.66347 5.83492 13.2091 2.2894 17.5672 2.2894C21.9252 2.2894 25.4708 5.83499 25.4708 10.1931C25.4708 14.5512 21.9253 18.0967 17.5672 18.0967Z" fill="#9E9E9E"/>
<path d="M17.5674 9.16195C16.999 9.16195 16.5365 8.69952 16.5365 8.13106C16.5365 7.90066 16.6106 7.68304 16.7509 7.50168C16.969 7.21971 17.3404 7.07818 17.7197 7.13243L19.8271 7.43349L20.1187 5.39243L18.5983 5.17522V4.00732H16.5365V5.23153C15.9812 5.42278 15.4852 5.76758 15.1196 6.24059C14.6977 6.78633 14.4747 7.44008 14.4747 8.13099C14.4747 9.83631 15.8621 11.2238 17.5675 11.2238C18.136 11.2238 18.5984 11.6862 18.5984 12.2547C18.5984 12.7702 18.214 13.2097 17.7046 13.2767C17.6531 13.2835 17.5883 13.2836 17.5121 13.277L15.25 13.0832L15.0739 15.1375L16.5365 15.2629V16.3784H18.5983V15.1702C19.8083 14.7412 20.6601 13.5825 20.6601 12.2547C20.6602 10.5494 19.2728 9.16195 17.5674 9.16195Z" fill="#9E9E9E"/>
</svg>
