<svg width="32" height="33" viewBox="0 0 32 33" fill="none" xmlns="http://www.w3.org/2000/svg">
<path d="M30.1177 12.1593C31.1556 12.1593 32 11.3179 32 10.2837V7.85531C32 7.08528 31.5371 6.40278 30.8204 6.11538L16.7058 0.365015C16.2462 0.180526 15.7488 0.183777 15.3009 0.36239C15.2904 0.366578 15.5371 0.266112 1.17961 6.11545C0.46287 6.40278 0 7.08534 0 7.85537V10.2839C0 11.318 0.844422 12.1594 1.88235 12.1594H3.01176V26.2884H1.88235C0.844422 26.2884 0 27.1297 0 28.1639V30.352C0 31.3862 0.844422 32.2275 1.88235 32.2275H30.1176C31.1555 32.2275 31.9999 31.3862 31.9999 30.352V28.1639C31.9999 27.1297 31.1555 26.2884 30.1176 26.2884H28.9882V12.1594H30.1177V12.1593ZM30.1177 28.1638C30.1188 30.402 30.1239 30.3519 30.1177 30.3519H1.88241V28.1638H30.1177ZM4.89417 26.2882V12.1593H7.0275V26.2882H4.89417ZM8.90985 26.2882V12.1593H13.051V26.2882H8.90985ZM14.9334 26.2882V12.1593H17.0667V26.2882H14.9334ZM18.949 26.2882V12.1593H23.0902V26.2882H18.949ZM24.9726 26.2882V12.1593H27.1059V26.2882H24.9726ZM1.88241 10.2837C1.88241 7.66782 1.87959 7.85643 1.889 7.85262L16 2.10369L30.1111 7.85262C30.1208 7.8565 30.1177 7.67401 30.1177 10.2837C29.8048 10.2837 2.25418 10.2837 1.88241 10.2837Z" fill="#F16522"/>
</svg>
