<svg width="32" height="33" viewBox="0 0 32 33" fill="none" xmlns="http://www.w3.org/2000/svg">
<path d="M1.34475 18.0095C1.36225 18.001 3.12087 17.165 4.75 17.165C5.95944 17.165 7.38937 18.3212 7.83712 18.7655L8.49875 19.4245L9.16162 18.7667C9.61063 18.3212 11.0406 17.165 12.25 17.165C13.2719 17.165 14.4513 17.9905 15.0625 18.5145V29.415C15.0625 30.9659 16.3242 32.2275 17.875 32.2275C19.4258 32.2275 20.6875 30.9659 20.6875 29.415V27.54H18.8125V29.415C18.8125 29.932 18.3919 30.3525 17.875 30.3525C17.3581 30.3525 16.9375 29.932 16.9375 29.415V18.5145C17.5497 17.9898 18.7285 17.165 19.75 17.165C20.9594 17.165 22.3894 18.3212 22.8371 18.7655L23.4988 19.4245L24.1616 18.7667C24.6106 18.3212 26.0406 17.165 27.25 17.165C28.8755 17.165 30.6297 17.9973 30.6551 18.0094L32 18.6602V17.165C32 8.71129 25.3533 2.55479 16.9375 2.12723V0.227539H15.0625V2.12723C6.64388 2.55498 0 8.71404 0 17.165L0.0011875 18.6551L1.34475 18.0095ZM9.51081 16.1532C9.79919 12.2829 11.5153 5.44673 15.0625 4.15116V16.1975C14.2809 15.7202 13.2886 15.29 12.25 15.29C11.2436 15.29 10.2807 15.6939 9.51081 16.1532ZM16.9375 16.1974V4.15116C20.5002 5.45241 22.2015 12.2924 22.4892 16.1532C21.7193 15.6939 20.7564 15.29 19.75 15.29C18.7114 15.29 17.7191 15.7202 16.9375 16.1974ZM30.0545 15.7744C29.2746 15.5274 28.2621 15.29 27.25 15.29C26.1832 15.29 25.1654 15.7439 24.3744 16.2364C24.1159 12.3799 22.9513 7.61929 20.5009 4.61041C25.7651 6.15541 29.5029 10.3927 30.0545 15.7744ZM11.4991 4.61041C9.04881 7.61929 7.88413 12.3799 7.62556 16.2364C6.83463 15.7439 5.81681 15.29 4.75 15.29C3.73787 15.29 2.72537 15.5274 1.9455 15.7744C2.49706 10.3927 6.23494 6.15541 11.4991 4.61041Z" fill="#9E9E9E"/>
</svg>
